<svg xmlns="http://www.w3.org/2000/svg" version="1.1" xmlns:xlink="http://www.w3.org/1999/xlink" width="1000" height="1000"><style>
    #light-icon {
      display: inline;
    }
    #dark-icon {
      display: none;
    }

    @media (prefers-color-scheme: dark) {
      #light-icon {
        display: none;
      }
      #dark-icon {
        display: inline;
      }
    }
  </style><g id="light-icon"><svg xmlns="http://www.w3.org/2000/svg" version="1.1" xmlns:xlink="http://www.w3.org/1999/xlink" width="1000" height="1000"><g><g transform="matrix(8.333333333333334,0,0,8.333333333333334,-5.684341886080802e-14,225)"><svg xmlns="http://www.w3.org/2000/svg" version="1.1" xmlns:xlink="http://www.w3.org/1999/xlink" width="120" height="66"><svg width="120" height="66" viewBox="0 0 120 66" fill="none" xmlns="http://www.w3.org/2000/svg">
<path d="M32.9824 0C44.1578 0 54.0333 5.55904 59.999 14.0615C56.2409 19.4179 54.0342 25.9423 54.0342 32.9824C54.0342 40.0222 56.2412 46.5461 59.999 51.9023C54.0333 60.405 44.1579 65.9648 32.9824 65.9648C14.7669 65.9646 0.000117628 51.198 0 32.9824C0 14.7668 14.7668 0.000216063 32.9824 0ZM87.0166 0C105.232 0 120 14.7667 120 32.9824C120 51.1982 105.232 65.9648 87.0166 65.9648C75.8408 65.9647 65.9646 60.4055 59.999 51.9023C63.7572 46.5459 65.9658 40.0226 65.9658 32.9824C65.9658 25.942 63.7574 19.4181 59.999 14.0615C65.9646 5.55876 75.8411 0.000139947 87.0166 0ZM20.6797 51.6924H36.4062C41.2482 51.6922 45.1738 47.7668 45.1738 42.9248C45.1738 38.0827 41.2483 34.1574 36.4062 34.1572H20.6797V51.6924ZM74.7139 34.1572V51.6924H90.4404C95.2823 51.6921 99.207 47.7668 99.207 42.9248C99.207 38.0828 95.2824 34.1575 90.4404 34.1572H74.7139ZM20.6797 30.2598H35.4316C39.7358 30.2598 43.2256 26.77 43.2256 22.4658C43.2253 18.1619 39.7356 14.6729 35.4316 14.6729H20.6797V30.2598ZM74.7139 30.2598H89.4658C93.77 30.2597 97.2588 26.77 97.2588 22.4658C97.2585 18.1619 93.7698 14.6729 89.4658 14.6729H74.7139V30.2598Z" fill="#212121"></path>
</svg></svg></g></g></svg></g><g id="dark-icon"><svg xmlns="http://www.w3.org/2000/svg" version="1.1" xmlns:xlink="http://www.w3.org/1999/xlink" width="1000" height="1000"><g><g transform="matrix(8.333333333333334,0,0,8.333333333333334,-5.684341886080802e-14,225)"><svg xmlns="http://www.w3.org/2000/svg" version="1.1" xmlns:xlink="http://www.w3.org/1999/xlink" width="120" height="66"><svg width="120" height="66" viewBox="0 0 120 66" fill="none" xmlns="http://www.w3.org/2000/svg">
<path d="M32.9824 0C44.1578 0 54.0333 5.55904 59.999 14.0615C56.2409 19.4179 54.0342 25.9423 54.0342 32.9824C54.0342 40.0222 56.2412 46.5461 59.999 51.9023C54.0333 60.405 44.1579 65.9648 32.9824 65.9648C14.7669 65.9646 0.000117628 51.198 0 32.9824C0 14.7668 14.7668 0.000216063 32.9824 0ZM87.0166 0C105.232 0 120 14.7667 120 32.9824C120 51.1982 105.232 65.9648 87.0166 65.9648C75.8408 65.9647 65.9646 60.4055 59.999 51.9023C63.7572 46.5459 65.9658 40.0226 65.9658 32.9824C65.9658 25.942 63.7574 19.4181 59.999 14.0615C65.9646 5.55876 75.8411 0.000139947 87.0166 0ZM20.6797 51.6924H36.4062C41.2482 51.6922 45.1738 47.7668 45.1738 42.9248C45.1738 38.0827 41.2483 34.1574 36.4062 34.1572H20.6797V51.6924ZM74.7139 34.1572V51.6924H90.4404C95.2823 51.6921 99.207 47.7668 99.207 42.9248C99.207 38.0828 95.2824 34.1575 90.4404 34.1572H74.7139ZM20.6797 30.2598H35.4316C39.7358 30.2598 43.2256 26.77 43.2256 22.4658C43.2253 18.1619 39.7356 14.6729 35.4316 14.6729H20.6797V30.2598ZM74.7139 30.2598H89.4658C93.77 30.2597 97.2588 26.77 97.2588 22.4658C97.2585 18.1619 93.7698 14.6729 89.4658 14.6729H74.7139V30.2598Z" fill="white"></path>
</svg></svg></g></g></svg></g></svg>